# xmcd
#
# Track frame offsets: 
#        150
#        17155
#        39715
#        56829
#        81689
#        106438
#        121787
#        140363
#        158470
#        173783
#        194297
#        217990
#        235505
#        252697
#
# Disc length: 3582 seconds
#
# Revision: 1
# Processed by: cddbd v1.5.2PL0 Copyright (c) Steve Scherf et al.
# Submitted via: ExactAudioCopyFreeDBPlugin 1.0
#
DISCID=c00dfc0e
DTITLE=Keith Urban - Defying Gravity
DYEAR=2010
DGENRE=Country
TTITLE0=Kiss A Girl
TTITLE1=If Ever I Could Love
TTITLE2=Sweet Thing
TTITLE3='Til Summer Comes Around
TTITLE4=My Heart Is Open
TTITLE5=Hit The Ground Runnin'
TTITLE6=Only You Can Love Me This Way
TTITLE7=Standing Right In Front Of You
TTITLE8=Why's It Feel So Long
TTITLE9=I'm In
TTITLE10=Thank You
TTITLE11=Call My Name
TTITLE12=Goin' Crazy World
TTITLE13=I'm In (MachoPsycho Mix)
EXTD=
EXTT0=
EXTT1=
EXTT2=
EXTT3=
EXTT4=
EXTT5=
EXTT6=
EXTT7=
EXTT8=
EXTT9=
EXTT10=
EXTT11=
EXTT12=
EXTT13=
PLAYORDER=
